HIERARCHY
ROOT Hips
{
	OFFSET 0.00000 0.00000 0.00000
	CHANNELS 6 Xposition Yposition Zposition Zrotation Yrotation Xrotation 
	JOINT LHipJoint
	{
		OFFSET 0 0 0
		CHANNELS 3 Zrotation Yrotation Xrotation
		JOINT LeftHip
		{
			OFFSET 1.57314 -1.85774 0.63783
			CHANNELS 3 Zrotation Yrotation Xrotation
			JOINT LeftKnee
			{
				OFFSET 2.57982 -7.08799 0.00000
				CHANNELS 3 Zrotation Yrotation Xrotation
				JOINT LeftAnkle
				{
					OFFSET 2.63993 -7.25315 0.00000
					CHANNELS 3 Zrotation Yrotation Xrotation
					JOINT LeftToe
					{
						OFFSET 0.16864 -0.46332 2.12791
						CHANNELS 3 Zrotation Yrotation Xrotation
						End Site
						{
							OFFSET 0.00000 -0.00000 1.09718
						}
					}
				}
			}
		}
	}
	JOINT RHipJoint
	{
		OFFSET 0 0 0
		CHANNELS 3 Zrotation Yrotation Xrotation
		JOINT RightHip
		{
			OFFSET -1.56006 -1.85774 0.63784
			CHANNELS 3 Zrotation Yrotation Xrotation
			JOINT RightKnee
			{
				OFFSET -2.54246 -6.98536 0.00000
				CHANNELS 3 Zrotation Yrotation Xrotation
				JOINT RightAnkle
				{
					OFFSET -2.65791 -7.30256 0.00000
					CHANNELS 3 Zrotation Yrotation Xrotation
					JOINT RightToe
					{
						OFFSET -0.18435 -0.50650 2.16316
						CHANNELS 3 Zrotation Yrotation Xrotation
						End Site
						{
							OFFSET -0.00000 -0.00000 1.11780
						}
					}
				}
			}
		}
	}
	JOINT lowerback
	{
		OFFSET 0 0 0
		CHANNELS 3 Zrotation Yrotation Xrotation
		JOINT Chest
		{
			OFFSET -0.00136 1.92812 -0.29638
			CHANNELS 3 Zrotation Yrotation Xrotation
			JOINT Chest2
			{
				OFFSET -0.00528 1.96223 -0.02928
				CHANNELS 3 Zrotation Yrotation Xrotation
				JOINT lowerneck
				{
					OFFSET 0 0 0
					CHANNELS 3 Zrotation Yrotation Xrotation
					JOINT Neck
					{
						OFFSET -0.01015 1.75586 0.07797
						CHANNELS 3 Zrotation Yrotation Xrotation
						JOINT Head
						{
							OFFSET 0.05540 1.72452 0.04558
							CHANNELS 3 Zrotation Yrotation Xrotation
							End Site
							{
								OFFSET 0.02170 1.79958 0.00864
							}
						}
					}
				}
				JOINT LeftCollar
				{
					OFFSET 0 0 0
					CHANNELS 3 Zrotation Yrotation Xrotation
					JOINT LeftShoulder
					{
						OFFSET 3.16292 1.29277 -0.65728
CHANNELS 3 Zrotation Xrotation Yrotation
						JOINT LeftElbow
						{
OFFSET 0 -5.523020 -0.000000
CHANNELS 3 Zrotation Xrotation Yrotation
							JOINT LeftWrist
							{
OFFSET 0 -3.586750 -0.000000
CHANNELS 3 Zrotation Xrotation Yrotation
								JOINT lhand
								{
									OFFSET 0 0 0
CHANNELS 3 Zrotation Xrotation Yrotation
									JOINT LFingers
									{
OFFSET 0 -0.536410 -0.000000
CHANNELS 3 Zrotation Xrotation Yrotation
										End Site
										{
OFFSET 0 -0.432470 -0.000000
										}
									}
								}
								JOINT LThumb
								{
OFFSET 0 0.000000 0.000000
CHANNELS 3 Zrotation Xrotation Yrotation
									End Site
									{
OFFSET 0 -0.439070 0.439070
									}
								}
							}
						}
					}
				}
				JOINT RightCollar
				{
					OFFSET 0 0 0
					CHANNELS 3 Zrotation Yrotation Xrotation
					JOINT RightShoulder
					{
						OFFSET -3.08296 1.43376 -0.52927
CHANNELS 3 Zrotation Xrotation Yrotation
						JOINT RightElbow
						{
OFFSET 0 -5.847800 0.000000
CHANNELS 3 Zrotation Xrotation Yrotation
							JOINT RightWrist
							{
OFFSET 0 -3.627170 -0.000000
CHANNELS 3 Zrotation Xrotation Yrotation
								JOINT rhand
								{
									OFFSET 0 0 0
CHANNELS 3 Zrotation Xrotation Yrotation
									JOINT RFingers
									{
OFFSET 0 -0.650520 -0.000000
CHANNELS 3 Zrotation Xrotation Yrotation
										End Site
										{
OFFSET 0 -0.524460 -0.000000
										}
									}
								}
								JOINT RThumb
								{
OFFSET 0 0.000000 0.000000
CHANNELS 3 Zrotation Xrotation Yrotation
									End Site
									{
OFFSET 0 -0.532470 0.532470
									}
								}
							}
						}
					}
				}
			}
		}
	}
}
MOTION
Frames: 4
Frame Time: 0.008333333333333333
0.015400 18.005600 -30.668900 -5.294400 -1.529400 4.501200 0.000000 0.000000 0.000000 -15.015700 -6.985800 -28.984800 2.461300 9.767200 28.226200 -0.056600 -4.269800 2.277300 0.216800 -2.997300 -8.271300 0.000000 0.000000 0.000000 29.869400 1.175200 6.504700 -15.366200 -19.477200 76.337200 -1.130600 -20.057300 22.140900 -1.134100 -6.763400 19.016400 2.317300 0.623900 16.657300 0.345800 1.273200 1.640000 -1.234700 0.547000 -7.543100 -0.370700 0.193600 -1.800400 0.086800 0.265700 -11.620600 0.085700 0.146100 -3.421600 -0.000000 0.000000 0.000000 5.188800 20.454300 -39.994500 124.427400 -55.009900 89.315400 39.303100 -21.170300 -6.871100 0.000000 0.000000 0.000000 -7.125000 0.000000 0.000000 10.820000 38.616800 1.725100 -0.000000 0.000000 0.000000 -11.095800 10.465700 46.076300 -95.052800 -59.903300 -64.374400 -38.397700 -22.090900 -27.853600 0.000000 0.000000 0.000000 7.125000 0.000000 -0.000000 -4.611000 -3.912500 -4.930400
0.017398 17.977333 -30.556717 -5.200403 -1.362386 4.403707 0.000000 0.000000 0.000000 -15.209574 -7.003033 -28.837062 2.597504 10.000194 28.989094 -0.060460 -4.576765 1.520513 0.195821 -2.833078 -7.815462 0.000000 0.000000 0.000000 29.627120 0.976467 5.892541 -15.764006 -19.550422 77.520150 -1.068276 -20.102595 21.763052 -1.162980 -6.844160 19.255342 2.228049 0.546296 16.753158 0.328159 1.155091 1.666837 -1.177076 0.492328 -7.572116 -0.392655 0.196597 -1.828122 0.115022 0.272057 -11.586180 0.098528 0.149097 -3.404572 0.000000 0.000000 0.000000 5.272784 19.992695 -40.124302 124.567555 -54.964173 89.430080 39.399798 -21.351981 -6.699636 0.000000 0.000000 0.000000 -7.125000 0.000000 0.000000 10.884549 38.407964 1.793486 0.000000 0.000000 0.000000 -11.054001 10.601791 45.827163 -94.173159 -59.924075 -63.612936 -38.433619 -21.973450 -27.757991 0.000000 0.000000 0.000000 7.125000 0.000000 0.000000 -4.653367 -3.816642 -4.968521
0.019396 17.949066 -30.444534 -5.106407 -1.195371 4.306214 0.000000 0.000000 0.000000 -15.403448 -7.020265 -28.689324 2.733709 10.233187 29.751988 -0.064320 -4.883730 0.763727 0.174842 -2.668857 -7.359623 0.000000 0.000000 0.000000 29.384840 0.777735 5.280382 -16.161811 -19.623644 78.703101 -1.005952 -20.147891 21.385203 -1.191860 -6.924920 19.494284 2.138797 0.468692 16.849017 0.310517 1.036982 1.693673 -1.119452 0.437655 -7.601133 -0.414611 0.199594 -1.855844 0.143243 0.278415 -11.551760 0.111356 0.152094 -3.387543 0.000000 0.000000 0.000000 5.356768 19.531089 -40.254103 124.707710 -54.918446 89.544761 39.496497 -21.533663 -6.528171 0.000000 0.000000 0.000000 -7.125000 0.000000 0.000000 10.949098 38.199128 1.861872 0.000000 0.000000 0.000000 -11.012202 10.737882 45.578027 -93.293519 -59.944849 -62.851472 -38.469537 -21.855999 -27.662383 0.000000 0.000000 0.000000 7.125000 0.000000 0.000000 -4.695733 -3.720783 -5.006642
0.021394 17.920799 -30.332351 -5.012410 -1.028357 4.208721 0.000000 0.000000 0.000000 -15.597321 -7.037498 -28.541585 2.869913 10.466181 30.514882 -0.068179 -5.190695 0.006940 0.153863 -2.504635 -6.903785 0.000000 0.000000 0.000000 29.142561 0.579002 4.668223 -16.559617 -19.696866 79.886051 -0.943628 -20.193186 21.007355 -1.220740 -7.005680 19.733227 2.049546 0.391088 16.944875 0.292876 0.918873 1.720510 -1.061828 0.382983 -7.630149 -0.436566 0.202591 -1.883567 0.171465 0.284772 -11.517340 0.124184 0.155091 -3.370515 0.000000 0.000000 0.000000 5.440752 19.069484 -40.383905 124.847865 -54.872719 89.659441 39.593195 -21.715344 -6.356707 0.000000 0.000000 0.000000 -7.125000 0.000000 0.000000 11.013647 37.990292 1.930258 0.000000 0.000000 0.000000 -10.970403 10.873972 45.328890 -92.413878 -59.965624 -62.090009 -38.505456 -21.738549 -27.566774 0.000000 0.000000 0.000000 7.125000 0.000000 0.000000 -4.738100 -3.624925 -5.044763
